<svg width="228" height="131" viewBox="0 0 228 131" fill="none" xmlns="http://www.w3.org/2000/svg">
<rect y="42.6498" width="214" height="90" rx="45" transform="rotate(-11.4568 0 42.6498)" fill="url(#paint0_linear_1_335)"/>
<path d="M60.5467 96.1535C59.3719 96.3916 58.3782 96.2577 57.5655 95.7517C56.783 95.2001 56.265 94.299 56.0116 93.0485L49.3643 60.2493C49.1108 58.9987 49.241 57.986 49.7546 57.2112C50.2985 56.3908 51.1957 55.8539 52.4463 55.6005L72.285 51.5798C73.2703 51.3801 74.0592 51.4767 74.6517 51.8695C75.2442 52.2623 75.6326 52.9135 75.8169 53.823C76.0089 54.7704 75.9124 55.5593 75.5272 56.1897C75.1344 56.7822 74.4454 57.1783 73.4601 57.378L57.0321 60.7074L59.3246 72.0194L74.5589 68.9319C75.5063 68.7399 76.2763 68.8403 76.8688 69.2331C77.4992 69.6182 77.9065 70.2656 78.0908 71.1751C78.2829 72.1225 78.1673 72.9152 77.7443 73.5533C77.3515 74.1458 76.6814 74.538 75.734 74.73L60.4997 77.8175L63.2877 91.5738C63.8099 94.1508 62.8963 95.6774 60.5467 96.1535ZM99.7324 88.3303C96.8523 88.914 94.2321 88.8335 91.8718 88.0888C89.5115 87.3441 87.5251 86.0108 85.9126 84.0888C84.2923 82.1289 83.1827 79.671 82.5836 76.7151C82.1305 74.4792 82.0494 72.4243 82.3403 70.5506C82.6615 68.6312 83.3206 66.9195 84.3177 65.4155C85.3072 63.8735 86.6082 62.6038 88.2209 61.6063C89.8259 60.5709 91.7084 59.8343 93.8685 59.3965C96.7486 58.8128 99.3688 58.8933 101.729 59.638C104.089 60.3826 106.076 61.716 107.688 63.638C109.301 65.56 110.407 67.9989 111.006 70.9548C111.459 73.1907 111.525 75.2683 111.204 77.1877C110.92 79.0994 110.284 80.8262 109.295 82.3681C108.298 83.8721 106.996 85.1419 105.392 86.1773C103.779 87.1748 101.892 87.8925 99.7324 88.3303ZM98.638 82.93C100.04 82.6459 101.203 82.0552 102.125 81.158C103.048 80.2608 103.66 79.0915 103.959 77.6499C104.289 76.1627 104.25 74.4149 103.843 72.4064C103.229 69.3747 102.128 67.2505 100.54 66.0336C98.9441 64.7789 97.0851 64.3666 94.9629 64.7967C93.5608 65.0809 92.3983 65.6715 91.4754 66.5687C90.5449 67.428 89.9147 68.6012 89.5848 70.0884C89.2852 71.5299 89.3389 73.255 89.746 75.2635C90.3527 78.2573 91.4578 80.4005 93.0611 81.6931C94.6568 82.9478 96.5158 83.3601 98.638 82.93ZM132.485 81.6925C129.604 82.2762 126.984 82.1957 124.624 81.451C122.264 80.7063 120.277 79.373 118.665 77.451C117.044 75.4911 115.935 73.0332 115.336 70.0773C114.883 67.8414 114.801 65.7866 115.092 63.9128C115.414 61.9934 116.073 60.2817 117.07 58.7777C118.059 57.2358 119.36 55.9661 120.973 54.9685C122.578 53.9331 124.461 53.1965 126.621 52.7587C129.501 52.175 132.121 52.2555 134.481 53.0002C136.841 53.7449 138.828 55.0782 140.44 57.0002C142.053 58.9222 143.159 61.3612 143.758 64.3171C144.211 66.553 144.277 68.6306 143.956 70.5499C143.673 72.4616 143.036 74.1884 142.047 75.7304C141.05 77.2344 139.749 78.5041 138.144 79.5395C136.531 80.5371 134.645 81.2547 132.485 81.6925ZM131.39 76.2923C132.792 76.0081 133.955 75.4174 134.878 74.5203C135.8 73.6231 136.412 72.4537 136.711 71.0121C137.041 69.525 137.003 67.7772 136.595 65.7687C135.981 62.737 134.88 60.6127 133.292 59.3959C131.696 58.1412 129.837 57.7288 127.715 58.1589C126.313 58.4431 125.15 59.0338 124.228 59.931C123.297 60.7902 122.667 61.9635 122.337 63.4506C122.037 64.8922 122.091 66.6172 122.498 68.6257C123.105 71.6195 124.21 73.7627 125.813 75.0554C127.409 76.3101 129.268 76.7224 131.39 76.2923ZM163.247 75.458C160.822 75.9495 158.562 75.796 156.467 74.9976C154.409 74.1915 152.65 72.812 151.189 70.8593C149.721 68.8687 148.687 66.3954 148.088 63.4395C147.481 60.4457 147.474 57.7841 148.067 55.4545C148.653 53.087 149.736 51.1316 151.317 49.5882C152.936 48.037 154.958 47.0157 157.383 46.5242C159.695 46.0557 161.819 46.2171 163.754 47.0083C165.728 47.7919 167.206 49.0507 168.189 50.7848L167.563 50.9115L164.568 36.132C164.33 34.9572 164.453 34.0052 164.936 33.276C165.42 32.5467 166.23 32.0669 167.367 31.8365C168.504 31.6061 169.437 31.7326 170.166 32.2161C170.933 32.6919 171.436 33.5171 171.674 34.6919L178.517 68.4575C178.755 69.6322 178.636 70.6032 178.16 71.3703C177.677 72.0995 176.867 72.5794 175.73 72.8098C174.593 73.0402 173.66 72.9137 172.931 72.4302C172.194 71.9088 171.706 71.0608 171.468 69.886L170.57 65.4521L171.54 67.0307C171.371 69.1165 170.534 70.9235 169.029 72.4516C167.524 73.9796 165.597 74.9818 163.247 75.458ZM164.142 69.6545C165.544 69.3704 166.707 68.7797 167.63 67.8825C168.553 66.9853 169.164 65.8159 169.463 64.3744C169.793 62.8872 169.755 61.1394 169.348 59.1309C168.733 56.0992 167.632 53.9749 166.044 52.7581C164.448 51.5034 162.589 51.0911 160.467 51.5212C159.065 51.8053 157.902 52.396 156.98 53.2932C156.049 54.1525 155.419 55.3257 155.089 56.8129C154.789 58.2544 154.843 59.9795 155.25 61.988C155.857 64.9818 156.962 67.125 158.565 68.4176C160.161 69.6723 162.02 70.0846 164.142 69.6545Z" fill="white"/>
<defs>
<linearGradient id="paint0_linear_1_335" x1="0.895098" y1="38.2332" x2="184.67" y2="186.184" gradientUnits="userSpaceOnUse">
<stop stop-color="#FF9E0C"/>
<stop offset="1" stop-color="#D58000"/>
</linearGradient>
</defs>
</svg>
