<svg width="189" height="56" viewBox="0 0 189 56" fill="none" xmlns="http://www.w3.org/2000/svg">
<path d="M6.71 49.0771C8.601 49.8849 10.5424 49.9887 12.5998 49.9897C19.7726 49.9932 26.9454 49.9932 34.1182 49.9897C35.0421 49.9887 35.8591 49.9199 36.7255 49.7986C39.0187 49.4773 40.9371 48.4636 42.4807 46.7576C43.6263 45.4914 44.3525 44.0944 44.6595 42.5665C44.8842 41.4518 44.9969 40.1675 44.9976 38.7136C45.001 31.595 45.001 24.4763 44.9976 17.3577C44.9966 16.0638 44.9524 15.0248 44.753 13.8953C44.0377 9.84404 40.896 6.80816 36.8283 6.21208C35.9095 6.0778 35.2072 6.01031 34.7215 6.00962C27.1999 6.00688 19.6788 6.00688 12.1579 6.00962C11.0038 6.01065 10.0573 6.07848 9.00489 6.25011C4.90019 6.92121 1.8376 10.0455 1.21274 14.1522C1.08051 15.0196 1.01405 15.7729 1.01337 16.4122C1.012 23.9488 1.00754 31.4854 1.00001 39.0219C0.99932 39.875 1.06406 40.7653 1.19424 41.693C1.65158 44.955 3.66179 47.776 6.71 49.0771Z" stroke="#EB8C8D" stroke-width="0.205543"/>
<path d="M24.5635 14.9005C24.6776 14.4966 24.915 14.2716 25.177 13.9643C25.4093 13.6919 25.4042 13.3518 25.1061 13.1277C23.8523 12.1884 21.9171 12.1524 20.6962 13.1801C20.3745 13.4514 20.4639 13.768 20.7373 14.0527C20.9805 14.3055 21.17 14.5967 21.3056 14.9262C21.3084 14.9324 21.3096 14.9392 21.3092 14.9459C21.3089 14.9527 21.3069 14.9593 21.3036 14.9653C21.3002 14.9713 21.2955 14.9764 21.2898 14.9803C21.2841 14.9842 21.2775 14.9868 21.2707 14.9879C15.1887 15.7864 10.4365 20.2539 9.18885 26.2465C9.05833 26.8734 8.98639 27.5229 9.59891 27.8323C9.78733 27.9268 10.1505 27.9741 10.6883 27.9741C18.9772 27.9727 27.2664 27.9724 35.556 27.9731C35.8821 27.9731 36.1102 27.9481 36.2404 27.8981C36.7933 27.6843 37.042 27.1139 36.9362 26.5343C35.7923 20.295 30.8891 15.7484 24.6026 14.9591C24.5669 14.955 24.5539 14.9355 24.5635 14.9005Z" stroke="#EB8C8D" stroke-width="0.205543"/>
<path d="M14.5905 32.9697C12.2638 29.6275 7.5147 32.8587 9.63899 36.1967C15.8639 45.9764 30.0772 46.0823 36.2815 36.2193C36.5528 35.787 36.7313 35.4307 36.817 35.1505C37.2003 33.8915 36.5898 32.4332 35.4912 31.7991C34.3134 31.1198 32.8736 31.2678 31.8963 32.2307C31.7551 32.3691 31.5307 32.6764 31.2231 33.1526C30.5777 34.1522 29.773 35.011 28.809 35.7291C28.6329 35.8606 28.4582 35.9942 28.2849 36.1299C26.1225 37.8297 23.3919 38.3713 20.7404 37.6797C19.2975 37.3035 18.0642 36.4433 17.017 35.6623C16.0345 34.9285 15.3182 34.0138 14.5905 32.9697Z" stroke="#EB8C8D" stroke-width="0.205543"/>
<path d="M33.7626 23.1099C32.2015 19.4769 29.1101 16.9497 25.2439 16.0063C24.8112 15.9004 24.692 16.3886 25.1051 16.5921C28.6703 18.3495 32.073 21.5046 32.4995 25.6987C32.5489 26.1807 32.663 26.488 33.1809 26.5106C33.9065 26.5425 34.6002 26.303 34.4676 25.4294C34.3614 24.7285 34.1264 23.9553 33.7626 23.1099Z" stroke="#EB8C8D" stroke-width="0.205543"/>
<path d="M6.71 49.0771C3.66179 47.776 1.65158 44.955 1.19424 41.693C1.06406 40.7653 0.99932 39.875 1.00001 39.0219C1.00754 31.4854 1.012 23.9488 1.01337 16.4122C1.01405 15.7729 1.08051 15.0196 1.21274 14.1522C1.8376 10.0455 4.90019 6.92121 9.00489 6.25011C10.0573 6.07848 11.0038 6.01065 12.1579 6.00962C19.6788 6.00688 27.1999 6.00688 34.7215 6.00962C35.2072 6.01031 35.9095 6.0778 36.8283 6.21208C40.896 6.80816 44.0377 9.84403 44.753 13.8953C44.9524 15.0248 44.9966 16.0638 44.9976 17.3577C45.001 24.4763 45.001 31.595 44.9976 38.7136C44.9969 40.1675 44.8842 41.4518 44.6595 42.5665C44.3525 44.0944 43.6263 45.4914 42.4807 46.7576C40.9371 48.4636 39.0187 49.4772 36.7255 49.7986C35.8591 49.9199 35.0421 49.9887 34.1182 49.9897C26.9454 49.9932 19.7726 49.9932 12.5998 49.9897C10.5424 49.9887 8.601 49.8849 6.71 49.0771ZM24.5635 14.9004C24.6776 14.4965 24.915 14.2714 25.177 13.9642C25.4093 13.6918 25.4042 13.3516 25.1061 13.1276C23.8523 12.1883 21.9171 12.1523 20.6962 13.18C20.3745 13.4513 20.4639 13.7679 20.7373 14.0525C20.9805 14.3054 21.17 14.5965 21.3056 14.9261C21.3084 14.9323 21.3096 14.939 21.3092 14.9458C21.3089 14.9526 21.3069 14.9592 21.3036 14.9652C21.3002 14.9711 21.2955 14.9763 21.2898 14.9802C21.2841 14.9841 21.2775 14.9867 21.2707 14.9878C15.1887 15.7863 10.4365 20.2538 9.18885 26.2464C9.05833 26.8733 8.98639 27.5228 9.59891 27.8322C9.78732 27.9267 10.1505 27.974 10.6883 27.974C18.9772 27.9726 27.2664 27.9723 35.556 27.973C35.8821 27.973 36.1102 27.948 36.2404 27.8979C36.7933 27.6842 37.042 27.1138 36.9362 26.5342C35.7923 20.2949 30.8891 15.7483 24.6025 14.959C24.5669 14.9549 24.5539 14.9353 24.5635 14.9004ZM14.5905 32.9697C12.2638 29.6276 7.5147 32.8587 9.63899 36.1968C15.8639 45.9765 30.0772 46.0824 36.2815 36.2194C36.5528 35.787 36.7313 35.4308 36.817 35.1505C37.2003 33.8916 36.5898 32.4333 35.4912 31.7992C34.3134 31.1198 32.8736 31.2678 31.8963 32.2308C31.7551 32.3692 31.5307 32.6765 31.2231 33.1527C30.5777 34.1523 29.773 35.0111 28.809 35.7291C28.6329 35.8607 28.4582 35.9943 28.2849 36.1299C26.1225 37.8298 23.3919 38.3714 20.7404 37.6797C19.2975 37.3036 18.0642 36.4434 17.017 35.6623C16.0345 34.9285 15.3182 34.0139 14.5905 32.9697Z" fill="#F03328"/>
<path d="M24.6026 14.9591C30.8891 15.7484 35.7923 20.295 36.9362 26.5343C37.042 27.1139 36.7933 27.6843 36.2404 27.8981C36.1102 27.9481 35.8821 27.9731 35.556 27.9731C27.2664 27.9724 18.9772 27.9727 10.6883 27.9741C10.1505 27.9741 9.78733 27.9268 9.59891 27.8323C8.98639 27.5229 9.05833 26.8734 9.18885 26.2465C10.4365 20.2539 15.1887 15.7864 21.2707 14.9879C21.2775 14.9868 21.2841 14.9842 21.2898 14.9803C21.2955 14.9764 21.3002 14.9713 21.3036 14.9653C21.3069 14.9593 21.3089 14.9527 21.3092 14.9459C21.3096 14.9392 21.3084 14.9324 21.3056 14.9262C21.17 14.5967 20.9805 14.3055 20.7373 14.0527C20.4639 13.768 20.3745 13.4514 20.6962 13.1801C21.9171 12.1524 23.8523 12.1884 25.1061 13.1277C25.4042 13.3518 25.4093 13.6919 25.177 13.9643C24.915 14.2716 24.6776 14.4966 24.5635 14.9005C24.5539 14.9355 24.5669 14.955 24.6026 14.9591ZM33.7626 23.1099C32.2015 19.4769 29.1101 16.9498 25.2439 16.0063C24.8112 15.9005 24.692 16.3887 25.1051 16.5921C28.6703 18.3495 32.073 21.5046 32.4995 25.6987C32.5489 26.1807 32.6629 26.488 33.1809 26.5106C33.9065 26.5425 34.6002 26.303 34.4676 25.4295C34.3614 24.7286 34.1264 23.9554 33.7626 23.1099Z" fill="#F8F8F8"/>
<path d="M33.7626 23.1099C34.1264 23.9553 34.3614 24.7285 34.4676 25.4294C34.6002 26.303 33.9065 26.5424 33.1809 26.5106C32.663 26.488 32.5489 26.1807 32.4995 25.6987C32.073 21.5046 28.6703 18.3495 25.1051 16.5921C24.692 16.3886 24.8112 15.9004 25.2439 16.0063C29.1101 16.9497 32.2015 19.4769 33.7626 23.1099Z" fill="#FF9E0C"/>
<path d="M9.63899 36.1969C7.5147 32.8589 12.2638 29.6278 14.5905 32.9699C15.3182 34.0141 16.0345 34.9287 17.017 35.6625C18.0642 36.4436 19.2975 37.3038 20.7404 37.6799C23.3919 38.3716 26.1225 37.83 28.2849 36.1301C28.4582 35.9945 28.6329 35.8609 28.809 35.7293C29.773 35.0113 30.5777 34.1525 31.2231 33.1528C31.5307 32.6767 31.7551 32.3694 31.8963 32.231C32.8736 31.268 34.3134 31.12 35.4912 31.7993C36.5898 32.4334 37.2003 33.8918 36.817 35.1507C36.7313 35.4309 36.5528 35.7872 36.2815 36.2195C30.0772 46.0825 15.8639 45.9767 9.63899 36.1969Z" fill="#F8F8F8"/>
<path d="M70.8647 41.82C70.038 41.82 69.3847 41.5933 68.9047 41.14C68.4514 40.66 68.2247 39.98 68.2247 39.1V16.02C68.2247 15.14 68.4514 14.4733 68.9047 14.02C69.3847 13.54 70.0647 13.3 70.9447 13.3H84.9047C85.598 13.3 86.118 13.4733 86.4647 13.82C86.8114 14.1667 86.9847 14.66 86.9847 15.3C86.9847 15.9667 86.8114 16.4867 86.4647 16.86C86.118 17.2067 85.598 17.38 84.9047 17.38H73.3447V25.34H84.0647C84.7314 25.34 85.238 25.5133 85.5847 25.86C85.958 26.2067 86.1447 26.7 86.1447 27.34C86.1447 28.0067 85.958 28.5267 85.5847 28.9C85.238 29.2467 84.7314 29.42 84.0647 29.42H73.3447V39.1C73.3447 40.9133 72.518 41.82 70.8647 41.82ZM98.4225 41.9C96.3959 41.9 94.6359 41.4867 93.1425 40.66C91.6492 39.8333 90.4892 38.66 89.6625 37.14C88.8359 35.5933 88.4225 33.78 88.4225 31.7C88.4225 30.1267 88.6492 28.7267 89.1025 27.5C89.5825 26.2467 90.2625 25.18 91.1425 24.3C92.0225 23.3933 93.0759 22.7133 94.3025 22.26C95.5292 21.78 96.9025 21.54 98.4225 21.54C100.449 21.54 102.209 21.9533 103.703 22.78C105.196 23.6067 106.356 24.78 107.183 26.3C108.009 27.82 108.423 29.62 108.423 31.7C108.423 33.2733 108.183 34.6867 107.703 35.94C107.249 37.1933 106.583 38.2733 105.703 39.18C104.823 40.06 103.769 40.74 102.543 41.22C101.316 41.6733 99.9425 41.9 98.4225 41.9ZM98.4225 38.1C99.4092 38.1 100.276 37.86 101.023 37.38C101.769 36.9 102.343 36.1933 102.743 35.26C103.169 34.3 103.383 33.1133 103.383 31.7C103.383 29.5667 102.929 27.98 102.023 26.94C101.116 25.8733 99.9159 25.34 98.4225 25.34C97.4359 25.34 96.5692 25.58 95.8225 26.06C95.0759 26.5133 94.4892 27.22 94.0625 28.18C93.6625 29.1133 93.4625 30.2867 93.4625 31.7C93.4625 33.8067 93.9159 35.4067 94.8225 36.5C95.7292 37.5667 96.9292 38.1 98.4225 38.1ZM121.469 41.9C119.443 41.9 117.683 41.4867 116.189 40.66C114.696 39.8333 113.536 38.66 112.709 37.14C111.883 35.5933 111.469 33.78 111.469 31.7C111.469 30.1267 111.696 28.7267 112.149 27.5C112.629 26.2467 113.309 25.18 114.189 24.3C115.069 23.3933 116.123 22.7133 117.349 22.26C118.576 21.78 119.949 21.54 121.469 21.54C123.496 21.54 125.256 21.9533 126.749 22.78C128.243 23.6067 129.403 24.78 130.229 26.3C131.056 27.82 131.469 29.62 131.469 31.7C131.469 33.2733 131.229 34.6867 130.749 35.94C130.296 37.1933 129.629 38.2733 128.749 39.18C127.869 40.06 126.816 40.74 125.589 41.22C124.363 41.6733 122.989 41.9 121.469 41.9ZM121.469 38.1C122.456 38.1 123.323 37.86 124.069 37.38C124.816 36.9 125.389 36.1933 125.789 35.26C126.216 34.3 126.429 33.1133 126.429 31.7C126.429 29.5667 125.976 27.98 125.069 26.94C124.163 25.8733 122.963 25.34 121.469 25.34C120.483 25.34 119.616 25.58 118.869 26.06C118.123 26.5133 117.536 27.22 117.109 28.18C116.709 29.1133 116.509 30.2867 116.509 31.7C116.509 33.8067 116.963 35.4067 117.869 36.5C118.776 37.5667 119.976 38.1 121.469 38.1Z" fill="#F03328"/>
<path d="M143.116 41.9C141.41 41.9 139.903 41.4867 138.596 40.66C137.316 39.8333 136.316 38.66 135.596 37.14C134.876 35.5933 134.516 33.78 134.516 31.7C134.516 29.5933 134.876 27.7933 135.596 26.3C136.316 24.78 137.316 23.6067 138.596 22.78C139.903 21.9533 141.41 21.54 143.116 21.54C144.743 21.54 146.156 21.94 147.356 22.74C148.583 23.54 149.41 24.5933 149.836 25.9H149.396V15.5C149.396 14.6733 149.61 14.0467 150.036 13.62C150.463 13.1933 151.076 12.98 151.876 12.98C152.676 12.98 153.29 13.1933 153.716 13.62C154.17 14.0467 154.396 14.6733 154.396 15.5V39.26C154.396 40.0867 154.183 40.7267 153.756 41.18C153.33 41.6067 152.716 41.82 151.916 41.82C151.116 41.82 150.503 41.6067 150.076 41.18C149.65 40.7267 149.436 40.0867 149.436 39.26V36.14L149.876 37.34C149.476 38.7267 148.663 39.8333 147.436 40.66C146.21 41.4867 144.77 41.9 143.116 41.9ZM144.516 38.1C145.503 38.1 146.37 37.86 147.116 37.38C147.863 36.9 148.436 36.1933 148.836 35.26C149.263 34.3 149.476 33.1133 149.476 31.7C149.476 29.5667 149.023 27.98 148.116 26.94C147.21 25.8733 146.01 25.34 144.516 25.34C143.53 25.34 142.663 25.58 141.916 26.06C141.17 26.5133 140.583 27.22 140.156 28.18C139.756 29.1133 139.556 30.2867 139.556 31.7C139.556 33.8067 140.01 35.4067 140.916 36.5C141.823 37.5667 143.023 38.1 144.516 38.1ZM162.061 41.78C161.261 41.78 160.647 41.54 160.221 41.06C159.794 40.58 159.581 39.9133 159.581 39.06V24.38C159.581 23.5 159.794 22.8333 160.221 22.38C160.647 21.9 161.261 21.66 162.061 21.66C162.861 21.66 163.474 21.9 163.901 22.38C164.354 22.8333 164.581 23.5 164.581 24.38V39.06C164.581 39.9133 164.367 40.58 163.941 41.06C163.514 41.54 162.887 41.78 162.061 41.78ZM162.061 17.94C161.127 17.94 160.394 17.7133 159.861 17.26C159.354 16.78 159.101 16.1267 159.101 15.3C159.101 14.4467 159.354 13.7933 159.861 13.34C160.394 12.8867 161.127 12.66 162.061 12.66C163.021 12.66 163.754 12.8867 164.261 13.34C164.767 13.7933 165.021 14.4467 165.021 15.3C165.021 16.1267 164.767 16.78 164.261 17.26C163.754 17.7133 163.021 17.94 162.061 17.94ZM179.416 41.9C177.203 41.9 175.296 41.4867 173.696 40.66C172.096 39.8333 170.856 38.66 169.976 37.14C169.123 35.62 168.696 33.82 168.696 31.74C168.696 29.7133 169.109 27.94 169.936 26.42C170.789 24.9 171.949 23.7133 173.416 22.86C174.909 21.98 176.603 21.54 178.496 21.54C179.883 21.54 181.123 21.7667 182.216 22.22C183.336 22.6733 184.283 23.3267 185.056 24.18C185.856 25.0333 186.456 26.0733 186.856 27.3C187.283 28.5 187.496 29.86 187.496 31.38C187.496 31.86 187.323 32.2333 186.976 32.5C186.656 32.74 186.189 32.86 185.576 32.86H172.736V29.98H183.976L183.336 30.58C183.336 29.3533 183.149 28.3267 182.776 27.5C182.429 26.6733 181.909 26.0467 181.216 25.62C180.549 25.1667 179.709 24.94 178.696 24.94C177.576 24.94 176.616 25.2067 175.816 25.74C175.043 26.2467 174.443 26.98 174.016 27.94C173.616 28.8733 173.416 29.9933 173.416 31.3V31.58C173.416 33.7667 173.923 35.4067 174.936 36.5C175.976 37.5667 177.496 38.1 179.496 38.1C180.189 38.1 180.963 38.02 181.816 37.86C182.696 37.6733 183.523 37.3667 184.296 36.94C184.856 36.62 185.349 36.4867 185.776 36.54C186.203 36.5667 186.536 36.7133 186.776 36.98C187.043 37.2467 187.203 37.58 187.256 37.98C187.309 38.3533 187.229 38.74 187.016 39.14C186.829 39.54 186.496 39.8867 186.016 40.18C185.083 40.7667 184.003 41.2067 182.776 41.5C181.576 41.7667 180.456 41.9 179.416 41.9Z" fill="#FF9E0C"/>
</svg>
