<svg width="46" height="45" viewBox="0 0 46 45" fill="none" xmlns="http://www.w3.org/2000/svg">
<path fill-rule="evenodd" clip-rule="evenodd" d="M22.5657 0.584206C20.784 0.969839 19.3047 2.42502 18.8796 4.21032C18.5503 5.5934 18.9368 7.42461 19.7484 8.32682C20.4077 9.05988 21.2984 9.38309 23.1125 9.54784C23.9263 9.62173 24.7437 9.47699 25.0087 9.21207C25.1773 9.04355 25.1875 8.96015 25.132 8.21112C25.0986 7.76173 25.039 7.15189 24.9993 6.85594C24.9149 6.2253 24.9994 5.84002 25.28 5.57654C25.6421 5.23646 26.4715 4.92715 27.446 4.76868C28.1651 4.65173 28.3971 4.58107 28.3958 4.47937C28.3923 4.20799 27.9569 3.11701 27.6801 2.68582C27.0194 1.65662 25.8181 0.839172 24.5845 0.579184C23.8186 0.417757 23.329 0.418922 22.5657 0.584206ZM27.1381 5.19682C26.3166 5.36462 25.7645 5.60165 25.4909 5.90405C25.3369 6.07427 25.3282 6.16736 25.3992 6.87764C25.4425 7.30964 25.4787 8.03535 25.4798 8.4903C25.4815 9.20005 25.4563 9.34273 25.3023 9.49528C25.0794 9.71608 24.2026 9.95015 23.6011 9.94943C23.1694 9.94889 21.6893 9.75357 21.1573 9.62685L20.9057 9.56694L21.1749 9.85706C22.4356 11.216 24.7019 11.52 26.3546 10.5519C27.5276 9.86486 28.3979 8.31587 28.3979 6.91522C28.3979 6.45793 28.1973 5.58183 28.016 5.24651L27.9044 5.04024L27.1381 5.19682ZM19.9745 11.217C18.6925 11.4297 17.4755 12.4036 16.8331 13.7309C16.386 14.6543 15.7417 16.871 15.4688 18.4249C15.1076 20.4803 15.2102 24.223 15.6648 25.5831C16.0372 26.697 16.6974 27.4232 17.6677 27.786C17.93 27.8841 19.8296 28.2244 21.9882 28.5599C24.1071 28.8893 25.8451 29.1651 25.8505 29.1728C25.8559 29.1805 26.4565 30.7001 27.1853 32.5498C28.6909 36.3717 28.6393 36.2573 29.0407 36.6667C29.6498 37.2881 30.7724 37.5243 31.5448 37.1937C32.3943 36.8299 32.9715 35.9554 32.973 35.0297C32.9738 34.5599 32.8005 34.0653 31.3074 30.2766C30.3908 27.9508 29.5574 25.9128 29.4554 25.7478C29.2255 25.376 28.6548 24.9544 28.227 24.8402C28.0495 24.7929 26.7133 24.5705 25.2574 24.3459C23.8016 24.1214 22.4732 23.9125 22.3055 23.8817L22.0006 23.8258L22.0653 22.5602C22.1008 21.8642 22.1784 20.9517 22.2377 20.5324L22.3455 19.7702L21.3116 18.7373C19.8864 17.3136 18.6456 15.5016 18.4823 14.6053C18.3485 13.8709 18.7773 13.078 19.5087 12.7077C20.5458 12.1825 21.4274 12.5306 22.1279 13.7418C22.6394 14.6261 23.1032 15.2523 23.2016 15.1914C23.3271 15.114 23.2968 13.9091 23.1561 13.3808C22.8882 12.3752 22.3274 11.6233 21.6361 11.3429C21.2288 11.1777 20.53 11.1248 19.9745 11.217ZM19.8455 12.9497C18.834 13.3103 18.5817 14.266 19.2 15.3943C20.6658 18.0689 23.1259 20.2092 25.8645 21.1924C27.2601 21.6935 29.8029 22.0166 30.6145 21.7961C31.6187 21.5233 32.0859 20.5326 31.6308 19.6411C31.3159 19.0242 30.9797 18.8952 29.4822 18.8164C27.5166 18.713 26.442 18.3779 24.9997 17.4188C23.6802 16.5412 22.7943 15.5546 21.6235 13.6592C21.4398 13.3616 21.2274 13.1593 20.954 13.0216C20.4957 12.7906 20.3234 12.7793 19.8455 12.9497ZM0.0892694 14.8677L0.0408173 27.273L0.339605 27.5716C0.553153 27.785 0.752166 27.8867 1.03678 27.9278C1.25589 27.9595 4.06144 27.9732 7.2714 27.9583C12.747 27.9329 13.1231 27.9211 13.3578 27.7673C13.8687 27.4326 13.8622 27.5181 13.8622 21.1154C13.8622 14.7953 13.8635 14.8129 13.4031 14.4907C13.2149 14.3588 12.5765 14.3444 6.93474 14.3444H0.67536L0.0892694 14.8677ZM36.2489 18.9533C35.4892 19.1922 34.8804 19.6979 34.5165 20.3923C34.3107 20.7846 34.2782 20.9559 34.2766 21.6535C34.2752 22.3181 34.3115 22.535 34.4825 22.8817C34.9218 23.7732 35.8202 24.3944 36.7693 24.463C37.2451 24.4975 37.316 24.4783 37.5533 24.2509C38.4928 23.3514 38.4143 19.6501 37.4414 18.9689C37.2041 18.8028 36.7467 18.7968 36.2489 18.9533ZM32.1664 20.6526C32.1664 20.9164 31.8341 21.477 31.5084 21.7628C31.0467 22.1681 30.4692 22.2731 29.1004 22.2009C27.9923 22.1424 27.9492 22.1468 27.9492 22.3177C27.9492 22.5979 28.3192 22.9546 28.667 23.0097C28.9016 23.047 29.2288 22.9666 29.9598 22.6921C30.4982 22.4899 30.9458 22.335 30.9547 22.3478C30.9636 22.3605 31.8903 25.0593 33.0139 28.3451C34.1376 31.6309 35.0902 34.3732 35.1309 34.439C35.1867 34.5293 35.3112 34.4594 35.6372 34.1546C35.8749 33.9324 36.3191 33.6043 36.6242 33.4256C39.4245 31.7853 42.959 32.408 44.9701 34.8958C45.3825 35.4059 45.5029 35.5035 45.6596 35.4546C46.0536 35.3319 46.0588 34.9694 45.676 34.3171C44.5031 32.3187 42.3412 31.0163 39.959 30.8729L39.093 30.8208L38.7281 29.8692C37.9232 27.7708 36.5359 26.2489 34.4135 25.1356L33.7591 24.7923L33.0583 22.74C32.4016 20.8167 32.1664 20.2662 32.1664 20.6526ZM4.28208 29.0226C4.21936 29.0478 4.10828 29.1839 4.03533 29.325C3.86871 29.6469 3.84691 31.7397 4.00698 32.0401C4.14067 32.2909 4.35368 32.4537 4.55314 32.4573C4.75664 32.461 4.75252 32.5044 4.48693 33.1577C3.52955 35.5127 2.7387 38.5106 2.73691 39.7917L2.73619 40.2625H5.83318L5.83246 39.0742C5.83183 38.078 5.86575 37.7771 6.04188 37.2133C6.48288 35.8016 7.29814 34.6116 8.35951 33.8301C9.40149 33.0627 10.3294 32.6952 11.5804 32.5543C14.7367 32.1987 17.7389 34.2722 18.586 37.3927C18.6997 37.8114 18.7433 38.2976 18.7408 39.119L18.7374 40.2625H33.5723L33.4914 39.702C33.4469 39.3937 33.4346 38.8893 33.4639 38.581L33.5173 38.0204H21.5955L21.3056 37.3254C20.7328 35.9517 20.308 34.3464 20.1798 33.0713C20.1213 32.4892 20.127 32.4654 20.378 32.2496L20.6366 32.0273V30.7263C20.6366 29.4729 20.6286 29.417 20.4191 29.194L20.2015 28.9626L12.2988 28.9696C7.95233 28.9735 4.3448 28.9974 4.28208 29.0226ZM10.9663 33.5871C9.86287 33.8544 8.7185 34.579 7.99154 35.471C5.88001 38.0618 6.48522 41.8539 9.30046 43.6726C10.1979 44.2524 11.1138 44.5082 12.292 44.5082C13.119 44.5082 13.3953 44.4697 13.9968 44.2707C15.8028 43.6731 17.2136 42.142 17.684 40.2686C17.8875 39.4585 17.8229 38.0017 17.5486 37.2133C16.9266 35.4256 15.4174 34.0544 13.5518 33.5821C12.8961 33.4161 11.6627 33.4184 10.9663 33.5871ZM38.6266 33.5822C38.3552 33.6562 37.7989 33.8804 37.3904 34.0804C36.0263 34.7488 34.9016 36.1694 34.5472 37.6719C34.3732 38.4098 34.3724 39.6304 34.5454 40.3109C35.2683 43.1532 38.1496 45.0072 40.9595 44.4381C43.0464 44.0154 44.5331 42.7019 45.229 40.6661C45.5337 39.7744 45.571 38.4995 45.3195 37.572C44.8439 35.8188 43.4791 34.3489 41.765 33.7442C40.9219 33.4468 39.41 33.3687 38.6266 33.5822ZM13.3495 37.1014C14.6647 37.8169 14.8533 39.6214 13.7171 40.6185C13.2595 41.02 12.885 41.1597 12.2725 41.1573C10.9625 41.1524 9.98687 40.068 10.1213 38.7662C10.2847 37.1841 11.936 36.3325 13.3495 37.1014ZM40.8315 36.9864C41.6506 37.3274 42.1776 38.2205 42.1036 39.1423C42.0535 39.7671 41.8953 40.1205 41.48 40.5356C41.0661 40.9494 40.559 41.155 39.9472 41.1573C39.3347 41.1597 38.9602 41.02 38.5026 40.6185C37.1697 39.4487 37.7218 37.2828 39.464 36.8476C39.8047 36.7625 40.4511 36.8281 40.8315 36.9864Z" fill="#FF9E0C"/>
</svg>
